<svg overflow="visible" viewBox="0 -0.266 32 32" xml:space="preserve" xmlns="http://www.w3.org/2000/svg"><path clip-rule="evenodd" d="M28.923 0H3.077A3.077 3.077 0 0 0 0 3.076v25.848A3.077 3.077 0 0 0 3.077 32h25.846c1.7 0 3.077-1.377 3.077-3.076V3.076A3.076 3.076 0 0 0 28.923 0zM16 9.846a6.155 6.155 0 0 1 0 12.308 6.155 6.155 0 0 1 0-12.308zm12.308 17.23c0 .68-.551 1.232-1.23 1.232H4.923c-.68 0-1.23-.553-1.23-1.232V13.539h2.784A9.784 9.784 0 0 0 6.154 16c0 5.438 4.408 9.846 9.846 9.846s9.846-4.408 9.846-9.846a9.83 9.83 0 0 0-.322-2.461h2.784v13.537zm0-18.461c0 .68-.551 1.23-1.23 1.23h-3.692a1.23 1.23 0 0 1-1.23-1.23V4.924c0-.68.551-1.232 1.23-1.232h3.692c.68 0 1.23.553 1.23 1.232v3.691z" fill-rule="evenodd" fill="#ffffff" class="fill-000000"></path></svg>