<svg xmlns="http://www.w3.org/2000/svg" viewBox="0 0 24 24"><path d="M4 6c-1.105 0-2 .9-2 2v10c0 1.1.895 2 2 2h16c1.105 0 2-.9 2-2V8c0-1.1-.895-2-2-2H4z" fill="#1e9cb8" class="fill-95a5a6"></path><path d="M4 5a2 2 0 0 0-2 2v10a2 2 0 0 0 2 2h16a2 2 0 0 0 2-2V7a2 2 0 0 0-2-2H4z" fill="#2c9db6" class="fill-bdc3c7"></path><path fill="#ffffff" d="M4 7h7v10H4z" class="fill-ecf0f1"></path><path d="M7.313 8A2.5 2.5 0 0 0 5 10.5a2.5 2.5 0 0 0 .813 1.844A4.447 4.447 0 0 0 4 13.719V17h7v-3.312a4.539 4.539 0 0 0-1.813-1.344A2.5 2.5 0 0 0 10 10.5 2.5 2.5 0 0 0 7.312 8z" fill="#2c3e50" class="fill-2c3e50"></path><path d="M13 8v1h4V8h-4zm0 2v1h7v-1h-7zm0 2v1h7v-1h-7z" fill="#ffffff" class="fill-7f8c8d"></path></svg>