<svg viewBox="0 0 24 24" xml:space="preserve" xmlns="http://www.w3.org/2000/svg"><path fill="#1d769c" d="M12 11h11V1L12 2zM10 11V2.182L1 3v8z" class="fill-009ada"></path><path fill="#171201" opacity=".2" d="M12 2v.25l11-1V1z" class="fill-ffffff"></path><path opacity=".1" d="M12 10.75h11V11H12z" fill="#010a02" class="fill-000000"></path><path fill="#171201" opacity=".2" d="M1 3v.25l9-.818v-.25z" class="fill-ffffff"></path><path opacity=".1" d="M1 10.75h9V11H1z" fill="#010a02" class="fill-000000"></path><path fill="#1d769c" d="M12 13h11v10l-11-1zM10 13v8.818L1 21v-8z" class="fill-009ada"></path><path opacity=".1" d="M12 22v-.25l11 1V23z" fill="#010a02" class="fill-000000"></path><path fill="#171201" opacity=".2" d="M12 13h11v.25H12z" class="fill-ffffff"></path><path opacity=".1" d="M1 21v-.25l9 .818v.25z" fill="#010a02" class="fill-000000"></path><path fill="#171201" opacity=".2" d="M1 13h9v.25H1z" class="fill-ffffff"></path><linearGradient gradientUnits="userSpaceOnUse" id="a" x1="-.1" x2="25.632" y1="5.358" y2="17.357"><stop offset="0" stop-color="#171201" stop-opacity=".2" class="stop-color-ffffff"></stop><stop offset="1" stop-color="#171201" stop-opacity="0" class="stop-color-ffffff"></stop></linearGradient><path d="M12 2v9h11V1L12 2zM1 11h9V2.182L1 3v8zm11 11 11 1V13H12v9zM1 21l9 .818V13H1v8z" fill="url(#a)" class="fillurl(-a)"></path></svg>