<svg data-name="Layer 1" viewBox="0 0 500 500" xmlns="http://www.w3.org/2000/svg"><circle cx="250" cy="250" r="250" fill="#e04141" class="fill-bc2f2f"></circle><circle cx="250" cy="250" r="203.65" fill="#d94c4c" class="fill-e53e3e"></circle><circle cx="246.76" cy="385.58" r="21.84" fill="#ffffff" class="fill-ffffff"></circle><path d="M246.76 344.64c-55.39 0-100.45-42.19-100.45-94a12.5 12.5 0 0 1 25 0c0 38.07 33.85 69 75.45 69s75.45-31 75.45-69a12.5 12.5 0 0 1 25 0c0 51.81-45.06 94-100.45 94Z" fill="#ffffff" class="fill-ffffff"></path><path d="M254.18 111.34a24.25 24.25 0 0 1 24.22 24.22v116a24.25 24.25 0 0 1-24.22 24.22h-14.84a24.25 24.25 0 0 1-24.22-24.22v-116a24.25 24.25 0 0 1 24.22-24.22h14.84m0-18.75h-14.84a43 43 0 0 0-43 43v116a43 43 0 0 0 43 43h14.84a43 43 0 0 0 43-43v-116a43 43 0 0 0-43-43Z" fill="#ffffff" class="fill-ffffff"></path></svg>