<svg viewBox="0 0 32 32" xmlns="http://www.w3.org/2000/svg"><g data-name="Layer 2"><path d="M24 30H8a5 5 0 0 1-5-5 1 1 0 0 1 .06-.35A13.4 13.4 0 0 1 15.54 16h.92a13.4 13.4 0 0 1 12.48 8.65A1 1 0 0 1 29 25a5 5 0 0 1-5 5ZM5 25.17A3 3 0 0 0 8 28h16a3 3 0 0 0 3-2.83A11.39 11.39 0 0 0 16.46 18h-.92A11.39 11.39 0 0 0 5 25.17ZM16 15a6 6 0 1 1 6-6 6 6 0 0 1-6 6Zm0-10a4 4 0 1 0 4 4 4 4 0 0 0-4-4Z" fill="#ffffff" class="fill-000000"></path><path d="M24 30H8a5 5 0 0 1-5-5 1 1 0 0 1 .06-.35A13.4 13.4 0 0 1 15.54 16h.92a13.4 13.4 0 0 1 12.48 8.65A1 1 0 0 1 29 25a5 5 0 0 1-5 5ZM5 25.17A3 3 0 0 0 8 28h16a3 3 0 0 0 3-2.83A11.39 11.39 0 0 0 16.46 18h-.92A11.39 11.39 0 0 0 5 25.17Z" fill="#ffffff" class="fill-000000"></path></g><path d="M0 0h32v32H0z" fill="none"></path></svg>