<svg viewBox="0 0 80 80" xml:space="preserve" xmlns="http://www.w3.org/2000/svg"><path d="m15.25 23.737 8.486-8.486 3.533 3.533-8.486 8.485zM52.73 18.784l3.533-3.532 8.485 8.485-3.532 3.533zM42.5 21.162V16h-5v5.162C27.083 22.4 19 31.249 19 42c0 4.897 1.69 9.392 4.501 12.964l-3.653 3.653 3.536 3.536 3.653-3.653C30.608 61.309 35.103 63 40 63s9.392-1.69 12.964-4.501l3.653 3.653 3.536-3.536-3.653-3.653A20.888 20.888 0 0 0 61 42c0-10.751-8.083-19.6-18.5-20.838zM24 42c0-8.822 7.177-16 16-16s16 7.177 16 16-7.177 16-16 16-16-7.178-16-16z" fill="#ffffff" class="fill-000000"></path><path d="M42.5 30.998h-5v12.147l6.119 6.119 3.535-3.535-4.654-4.655z" fill="#ffffff" class="fill-000000"></path></svg>