<?xml version="1.0" ?><!DOCTYPE svg  PUBLIC '-//W3C//DTD SVG 1.1//EN'  'http://www.w3.org/Graphics/SVG/1.1/DTD/svg11.dtd'><svg height="128px" id="Layer_1" style="enable-background:new 0 0 128 128;" version="1.1" viewBox="0 0 128 128" width="128px" xml:space="preserve" xmlns="http://www.w3.org/2000/svg" xmlns:xlink="http://www.w3.org/1999/xlink"><g><path d="M65.634,107.35c-18.934,0-34.338-15.403-34.338-34.336S46.7,38.678,65.634,38.678   s34.337,15.403,34.337,34.336S84.567,107.35,65.634,107.35z M65.634,41.678c-17.279,0-31.338,14.057-31.338,31.336   s14.059,31.336,31.338,31.336s31.337-14.057,31.337-31.336S82.913,41.678,65.634,41.678z" style="fill:#313335;"/></g><g><path d="M82.138,76.743H65.273c-0.828,0-1.5-0.671-1.5-1.5V50.37c0-0.829,0.672-1.5,1.5-1.5   s1.5,0.671,1.5,1.5v23.373h15.364c0.828,0,1.5,0.671,1.5,1.5S82.966,76.743,82.138,76.743z" style="fill:#EE3E36;"/></g><g><path d="M34.87,50.645c-0.392,0-0.77-0.153-1.051-0.43c-2.45-2.406-3.799-5.618-3.799-9.042   c0-6.989,5.687-12.676,12.676-12.676c4.84,0,9.324,2.828,11.425,7.204c0.191,0.398,0.197,0.861,0.016,1.264   c-0.182,0.403-0.531,0.706-0.956,0.828c-6.891,1.97-12.957,6.307-17.081,12.212c-0.252,0.362-0.651,0.594-1.091,0.635   C34.962,50.643,34.916,50.645,34.87,50.645z M42.696,31.497c-5.335,0-9.676,4.34-9.676,9.676c0,2.023,0.617,3.949,1.765,5.569   c4.062-5.172,9.544-9.093,15.729-11.25C48.712,33.021,45.799,31.497,42.696,31.497z" style="fill:#EE3E36;"/></g><g><path d="M96.806,50.645c-0.046,0-0.092-0.002-0.139-0.006c-0.439-0.041-0.839-0.273-1.091-0.635   c-4.123-5.905-10.188-10.243-17.079-12.212c-0.425-0.122-0.774-0.424-0.956-0.827c-0.181-0.403-0.176-0.866,0.016-1.264   c2.1-4.376,6.583-7.204,11.424-7.204c6.989,0,12.676,5.687,12.676,12.676c0,3.424-1.35,6.635-3.8,9.042   C97.575,50.492,97.197,50.645,96.806,50.645z M81.163,35.491c6.186,2.157,11.667,6.078,15.728,11.25   c1.147-1.62,1.766-3.546,1.766-5.569c0-5.335-4.341-9.676-9.676-9.676C85.877,31.497,82.965,33.021,81.163,35.491z" style="fill:#EE3E36;"/></g><g><path d="M93.064,107.958c-0.384,0-0.768-0.146-1.061-0.439l-7.31-7.31c-0.586-0.586-0.586-1.536,0-2.121   c0.586-0.586,1.535-0.586,2.121,0l7.31,7.31c0.586,0.586,0.586,1.536,0,2.121C93.832,107.812,93.448,107.958,93.064,107.958z" style="fill:#313335;"/></g><g><path d="M37.775,107.958c-0.384,0-0.768-0.146-1.061-0.439c-0.586-0.585-0.586-1.535,0-2.121l7.31-7.31   c0.586-0.586,1.535-0.586,2.121,0c0.586,0.585,0.586,1.535,0,2.121l-7.31,7.31C38.543,107.812,38.159,107.958,37.775,107.958z" style="fill:#313335;"/></g><g><path d="M65.634,100.644c-15.236,0-27.632-12.395-27.632-27.63c0-0.829,0.672-1.5,1.5-1.5s1.5,0.671,1.5,1.5   c0,13.581,11.05,24.63,24.632,24.63c0.828,0,1.5,0.671,1.5,1.5S66.462,100.644,65.634,100.644z" style="fill:#313335;"/></g><rect height="128" id="_x3C_Slice_x3E__3_" style="fill:none" width="128" x="1.5" y="-0.5"/></svg>