<svg viewBox="0 0 128 128" xml:space="preserve" xmlns="http://www.w3.org/2000/svg" enable-background="new 0 0 128 128"><path d="M65.634 107.35c-18.934 0-34.338-15.403-34.338-34.336S46.7 38.678 65.634 38.678s34.337 15.403 34.337 34.336-15.404 34.336-34.337 34.336zm0-65.672c-17.279 0-31.338 14.057-31.338 31.336s14.059 31.336 31.338 31.336 31.337-14.057 31.337-31.336-14.058-31.336-31.337-31.336z" fill="#ffffff" class="fill-313335"></path><path d="M82.138 76.743H65.273a1.5 1.5 0 0 1-1.5-1.5V50.37a1.5 1.5 0 1 1 3 0v23.373h15.364a1.5 1.5 0 0 1 .001 3zM34.87 50.645c-.392 0-.77-.153-1.051-.43a12.583 12.583 0 0 1-3.799-9.042c0-6.989 5.687-12.676 12.676-12.676 4.84 0 9.324 2.828 11.425 7.204a1.501 1.501 0 0 1-.94 2.092C46.29 39.763 40.224 44.1 36.1 50.005a1.498 1.498 0 0 1-1.23.64zm7.826-19.148c-5.335 0-9.676 4.34-9.676 9.676 0 2.023.617 3.949 1.765 5.569a34.497 34.497 0 0 1 15.729-11.25c-1.802-2.471-4.715-3.995-7.818-3.995zM96.806 50.645a1.5 1.5 0 0 1-1.23-.641c-4.123-5.905-10.188-10.243-17.079-12.212a1.498 1.498 0 0 1-.94-2.091c2.1-4.376 6.583-7.204 11.424-7.204 6.989 0 12.676 5.687 12.676 12.676 0 3.424-1.35 6.635-3.8 9.042a1.5 1.5 0 0 1-1.051.43zM81.163 35.491a34.484 34.484 0 0 1 15.728 11.25 9.59 9.59 0 0 0 1.766-5.569c0-5.335-4.341-9.676-9.676-9.676-3.104.001-6.016 1.525-7.818 3.995z" fill="#ffffff" class="fill-ee3e36"></path><path d="M93.064 107.958c-.384 0-.768-.146-1.061-.439l-7.31-7.31a1.5 1.5 0 1 1 2.121-2.121l7.31 7.31a1.5 1.5 0 0 1-1.06 2.56zM37.775 107.958a1.5 1.5 0 0 1-1.061-2.56l7.31-7.31a1.5 1.5 0 1 1 2.121 2.121l-7.31 7.31a1.491 1.491 0 0 1-1.06.439zM65.634 100.644c-15.236 0-27.632-12.395-27.632-27.63a1.5 1.5 0 1 1 3 0c0 13.581 11.05 24.63 24.632 24.63a1.5 1.5 0 1 1 0 3z" fill="#ffffff" class="fill-313335"></path><path d="M1.5-.5h128v128H1.5z" fill="none"></path></svg>